<svg xmlns="http://www.w3.org/2000/svg" viewBox="0 0 161.57 161.57">
  <rect width="161.57" height="161.57" rx="34" fill="#5b4bdb" />
  <g fill="#fff">
    <path d="M104.77,128H44.3a10.74,10.74,0,0,1-10.7-10.7V56.78h7.7v52.76A10.73,10.73,0,0,0,52,120.25h52.76Z" />
    <path d="M116.08,116.64H55.61a10.74,10.74,0,0,1-10.7-10.7V45.47h7.91V98a10.73,10.73,0,0,0,10.7,10.7h52.55Z" />
    <path d="M127.59,94.42v10.7H67.13a10.73,10.73,0,0,1-10.7-10.7V34h60.46a10.73,10.73,0,0,1,10.7,10.7Z" />
  </g>
</svg>
