<svg xmlns="http://www.w3.org/2000/svg" id="Layer_1" data-name="Layer 1" viewBox="0 0 583.38 161.57"><defs><style>.cls-1{fill:#fff;}</style></defs><title>Artboard 1 copy</title><g id="_Group_" data-name="&lt;Group&gt;"><path id="_Compound_Path_" data-name="&lt;Compound Path&gt;" class="cls-1" d="M309.72,111.2H280.3l31.54-37.56V59.8H253A48.74,48.74,0,0,1,264.2,76.41h22.25l-14.33,17-13.49,16-17.49-4.89-.31.82c-1.65,4.17-7.28,7.32-13.08,7.32S215.15,109,214.07,101H262.7l.14-.83a46.55,46.55,0,0,0,.5-6.57c0-17.44-12.44-35.1-36.23-35.1C211,58.52,198.5,66.86,193.29,80V34H170.7v49c0,19.5-1.89,26-13.13,26-7.1,0-12.94-2.82-14.28-3.83l-1.14-.9-5.1,19,.57.38c5.49,3.79,12.19,5.72,19.95,5.72,23.29,0,31.5-10.42,34.29-25.45,3.69,13.67,15.64,25.32,35.25,25.32,11.34,0,21.17-4,27.69-11.06v9.82H314ZM226.85,74.94c7,0,12.09,4.54,13.15,11.66H213.72C214.79,79.48,219.85,74.94,226.85,74.94Z"></path><path id="_Compound_Path_2" data-name="&lt;Compound Path&gt;" class="cls-1" d="M441.86,58.52c-21.48,0-36.49,14.8-36.49,36,0,17.2,12.54,34.6,36.49,34.6,14.73,0,26.92-6.79,32.61-18.17l.52-1-19.1-5.34-.32.81c-1.65,4.17-7.27,7.32-13.08,7.32S429.9,109,428.82,101h48.63l.13-.82a45.45,45.45,0,0,0,.52-6.57C478.1,76.18,465.65,58.52,441.86,58.52Zm12.89,28.09H428.46c1.07-7.12,6.14-11.66,13.14-11.66S453.68,79.48,454.75,86.61Z"></path><path id="_Compound_Path_3" data-name="&lt;Compound Path&gt;" class="cls-1" d="M519.86,58.52c-8.79,0-16.07,3.46-20.82,9.81V34H476.95v93.89h19.57v-8.64c4.76,6.41,12.12,9.9,21.08,9.9,18.15,0,31.83-15,31.83-35C549.42,73.83,536.71,58.52,519.86,58.52Zm7,35.61c0,9.29-6.27,16-14.9,16-5.25,0-10.29-3.31-12.89-8.45V88.28c2.78-6.4,8.34-10.69,13.9-10.69C520.73,77.59,526.83,84.85,526.83,94.13Z"></path><polygon id="_Path_" data-name="&lt;Path&gt;" class="cls-1" points="396.55 59.8 385.66 101.68 373.57 59.8 349.22 59.8 337.13 101.4 326.45 60.94 326.15 59.8 305.09 59.8 325.16 127.61 347.85 127.61 361.35 82.8 374.99 127.61 397.68 127.61 417.75 59.8 396.55 59.8"></polygon><path id="_Path_2" data-name="&lt;Path&gt;" class="cls-1" d="M104.77,128H44.3a10.74,10.74,0,0,1-10.7-10.7V56.78h7.7v52.76A10.73,10.73,0,0,0,52,120.25h52.76Z"></path><path id="_Path_3" data-name="&lt;Path&gt;" class="cls-1" d="M116.08,116.64H55.61a10.74,10.74,0,0,1-10.7-10.7V45.47h7.91V98a10.73,10.73,0,0,0,10.7,10.7h52.55Z"></path><path id="_Path_4" data-name="&lt;Path&gt;" class="cls-1" d="M127.59,94.42v10.7H67.13a10.73,10.73,0,0,1-10.7-10.7V34h60.46a10.73,10.73,0,0,1,10.7,10.7Z"></path></g></svg>